<svg xmlns="http://www.w3.org/2000/svg" viewBox="0 0 56.16626 44.909962">
  <defs>
    <clipPath id="a">
      <path fill="#fff" stroke-dashoffset=".99999994" stroke-linecap="round" stroke-width=".26458332" d="M80.915848 58.595581h35.413212v10.22306H80.915848z"/>
    </clipPath>
    <clipPath id="b">
      <path fill="#fff" stroke-dashoffset=".99999994" stroke-linecap="round" stroke-width=".26458332" d="M80.915848 60.378159h35.413212v10.22306H80.915848z"/>
    </clipPath>
  </defs>
  <path fill="none" stroke="#000" stroke-dasharray=".79374995 .26458332" stroke-width=".26458332" d="M82.430446 65.095773c2.173543-3.102578 9.103104-5.464928 16.394617-4.787725 7.291507.677203 14.945877 4.394139 16.253187 7.575307 1.30731 3.181169-3.73245 5.827042-7.90616 6.079065-4.17372.252023-7.480807-1.889709-10.961248-1.968542-3.480441-.07883-7.134139 1.905503-10.252732.976202-3.118593-.929302-5.701207-4.771728-3.527664-7.874307z" clip-path="url(#a)" transform="translate(-70.1150816 -43.1499537)"/>
  <path fill="none" stroke="#000" stroke-linecap="round" stroke-width=".26458332" d="M12.314864 21.946319L25.980908 3.133831M14.126029 28.812805l11.876575-25.63832M26.362752 28.717978l-.329553-25.516909M36.24319 30.822295L26.07697 3.227067M44.00032 23.311712L25.999202 3.137234M53.04939 24.112096a24.966259 10.976727 0 0 1-24.96626 10.976726A24.966259 10.976727 0 0 1 3.116871 24.112096 24.966259 10.976727 0 0 1 28.08313 13.135369a24.966259 10.976727 0 0 1 24.96626 10.976727z"/>
  <g aria-label="CX" style="line-height:1.25;-inkscape-font-specification:cmmi10">
    <g stroke-width=".07000434" aria-label="C f" font-family="sans-serif" font-size="3.88055563" font-weight="400" letter-spacing="0" style="line-height:1.25" word-spacing="0">
      <path d="M39.1042384 6.9387006h-.12806l-.15134.162983c-.13194-.155222-.37254-.240594-.57044-.240594-.82268 0-1.4979.919692-1.4979 1.67252 0 .547158.30269 1.071033.91969 1.071033.20179 0 .39582-.06209.57821-.155222l.0388.131939h.12806l.30268-.83432h-.17462c-.14746.353131-.38418.702381-.7994.702381-.41133 0-.5588-.372534-.5588-.745067 0-.570442.39194-1.699683 1.06716-1.699683.40357 0 .50059.2794.50059.551038 0 .07761-.008.151342-.0155.217312h.15134z" font-family="Baskervald ADF Std" font-style="italic" style="-inkscape-font-specification:'Baskervald ADF Std Italic'"/>
      <path d="M39.9358384 8.6126316h-.20532c.0381-.14605.10372-.531284.28152-.531284.0783 0 .0381.14605.16298.14605.055 0 .0931-.04233.0931-.0889 0-.09525-.13335-.139699-.21379-.139699-.32596 0-.43603.364066-.51223.613833h-.22225l-.0212.0762h.22225l-.26881.954616c-.0212.08678-.0868.353484-.1778.353484-.0127 0-.0275-.0127-.0275-.02963v-.0021c0-.03175.0296-.05503.0296-.0889 0-.0381-.0487-.06138-.0847-.06138-.0699 0-.10372.04868-.10372.1016 0 .06985.0593.150284.17992.150284.23071 0 .34925-.315384.39793-.493184l.24342-.884766h.20531z" font-size="2.11666656"/>
    </g>
  </g>
  <text x="97.61235" y="64.45015" stroke-width=".26458332" font-family="cmmi10" font-size="3.88055563" font-weight="400" letter-spacing="0" style="line-height:1.25;-inkscape-font-specification:cmmi10" transform="translate(-73.11508 -34.858309)" word-spacing="0"/>
  <path fill="none" stroke="#000" stroke-width=".26458332" d="M21.071674 25.709803v11.559886"/>
  <g stroke-width=".26458332" aria-label="f(X)" font-family="Baskervald ADF Std" font-size="3.88055563" font-style="italic" font-weight="400" letter-spacing="0" style="line-height:1.25;-inkscape-font-specification:cmmi10" word-spacing="0">
    <path d="M19.9191934 39.2440296h-.376414c.06985-.267758.190148-.974019.516114-.974019.143581 0 .06985.267758.298803.267758.100894 0 .170744-.07761.170744-.162983 0-.174625-.244475-.256117-.391936-.256117-.597605 0-.799394.667455-.939094 1.125361h-.407458l-.03881.1397h.407458l-.49283 1.750131c-.03881.159102-.159103.648052-.325967.648052-.02328 0-.05045-.02328-.05045-.05433v-.0039c0-.05821.05433-.100894.05433-.162983 0-.06985-.08925-.112536-.155223-.112536-.128058 0-.190147.08925-.190147.186266 0 .128059.108656.27552.329847.27552.422981 0 .640292-.578203.729545-.90417l.446264-1.622072h.376414z" style="-inkscape-font-specification:'Baskervald ADF Std Italic'"/>
    <path d="M20.2040504 41.7392266l.151342-.07373c-.13582-.302684-.182386-.83432-.182386-1.164167 0-.818797.391936-1.633714 1.094317-2.099381l-.100895-.120297c-.783872.380295-1.311628 1.389239-1.311628 2.215797 0 .422981.08537.892528.34925 1.241778zM23.7091624 38.3320986h-.927453v.124178h.108656c.08537 0 .162983.0078.162983.06597 0 .03104-.02716.08537-.100894.162983l-.601487.640292-.155222-.593725c-.02328-.05821-.0388-.108656-.0388-.151342 0-.07761.05045-.124178.205669-.124178h.06209v-.124178h-1.039989v.124178h.09313c.143581 0 .217312.0194.263878.244475l.283281.931334-.892528.919691c-.170744.178506-.236714.248356-.477308.248356v.120297h.91193v-.120297c-.02716 0-.06597.0039-.104775.0039-.09701 0-.21343-.01164-.21343-.07761 0-.02716.0194-.06209.06985-.112536l.76835-.807155c.0078.0388.244475.826558.244475.873125 0 .100894-.104775.124177-.213431.124177-.02328 0-.04657 0-.06985-.0039v.120297h1.071031v-.120298h-.12029c-.128058 0-.205669-.02716-.259997-.213431l-.322086-1.086555.772231-.814917c.124177-.131939.259997-.225072.450144-.225072l.06985-.0039z" style="-inkscape-font-specification:'Baskervald ADF Std Italic'"/>
    <path d="M23.9712214 38.2816516l-.151342.07373c.13582.302683.174625.8382.174625 1.168047 0 .814917-.388055 1.633714-1.086555 2.0955l.100894.120297c.779992-.380294 1.311628-1.389239 1.311628-2.215797 0-.422981-.08537-.888647-.34925-1.241777z" style="-inkscape-font-specification:'Baskervald ADF Std Italic'"/>
  </g>
  <path fill="none" stroke="#000" stroke-width=".26458332" d="M31.65501 32.725628v4.544061"/>
  <g style="line-height:1.25;-inkscape-font-specification:cmmi10">
    <path stroke-width=".26458332" d="M33.0391584 38.3320986h-1.02059l-.0349.124178c.20955 0 .31432.02328.31432.08925 0 .03104-.0233.07373-.0699.124178l-.73342.76835-.25224-.752828c-.0155-.04269-.0272-.08149-.0272-.116417 0-.06597.0388-.112536.16298-.112536h.12418l.0349-.124178h-1.04387l-.031.124178h.0931c.12806 0 .21344.01552.26776.182386l.34149 1.036109-.25223.818797c-.0893.28328-.13194.306564-.43075.306564l-.0427.120297h1.13312l.0388-.120297h-.0737c-.1397 0-.24448-.01164-.24448-.159103 0-.03493.004-.08149.0194-.135819l.25612-.884767.91581-.939095c.15522-.170744.24448-.225072.45791-.225072h.0621z" aria-label="Y" font-family="Baskervald ADF Std" font-size="3.88055563" font-style="italic" font-weight="400" letter-spacing="0" style="-inkscape-font-specification:'Baskervald ADF Std Italic'" word-spacing="0"/>
  </g>
  <path fill="none" stroke="#000" stroke-width=".26458332" d="M82.430446 59.804107c2.173543-3.102578 9.103104-5.464928 16.394617-4.787725 7.291507.677203 14.945877 4.394139 16.253187 7.575307 1.30731 3.181169-3.73245 5.827042-7.90616 6.079065-4.17372.252023-7.480807-1.889709-10.961248-1.968542-3.480441-.07883-7.134139 1.905503-10.252732.976202-3.118593-.929302-5.701207-4.771728-3.527664-7.874307z" clip-path="url(#b)" transform="translate(-70.1150816 -37.8582874)"/>
</svg>
